<svg id="Layer_1" enable-background="new 0 0 511.999 511.999" height="512" viewBox="0 0 511.999 511.999" width="512" xmlns="http://www.w3.org/2000/svg"><g><g clip-rule="evenodd" fill-rule="evenodd"><g><path d="m9.999 200.493c85.431 22.891 166.057 11.37 245.553.011 80.952-11.568 160.796-22.971 246.446-.314v-100.407c.005-7.015-4.726-13.428-11.828-15.296-81.838-21.59-156.338-11.576-236.822-.078-72.534 10.364-146.096 20.87-222.644.56-10.958-3.211-20.704 4.768-20.704 15.096z" fill="#ff5a58"/><path d="m255.553 200.504c-79.497 11.359-160.122 22.88-245.553-.011l-.001 111.157c85.431 22.891 166.057 11.37 245.553.011 80.952-11.568 160.796-22.971 246.446-.314v-111.156c-85.649-22.658-165.493-11.254-246.445.313z" fill="#faf7f6"/><path d="m255.553 311.661c-79.497 11.359-160.122 22.879-245.553-.011v100.393c-.005 7.168 4.847 13.447 11.766 15.296 163.456 43.736 303.408-41.243 459.28-.564 10.185 3.457 20.953-4.081 20.953-15.015v-100.413c-85.65-22.657-165.494-11.253-246.446.314z" fill="#6d91ac"/></g><path d="m319.273 293.884-3.19-26.66c-2.244-18.759-19.429-32.27-38.188-30.026l-3.823.458-1.324-11.071c-1.307-10.921-11.312-18.789-22.234-17.482l-29.788 3.564c7.338 9.801 12.137 17.263 13.63 29.741-1.274.152-2.549.305-3.823.457-18.759 2.245-32.27 19.428-30.026 38.187l3.19 26.66 31.117-22.758 26.671 15.844 22.18-21.688z" fill="#ffc144"/></g><g><path d="m492.722 74.818c-85.352-22.517-164.371-11.227-240.787-.308-70.797 10.116-144.005 20.576-218.556.824-8.11-2.331-16.507-.859-23.061 4.05-6.461 4.84-10.318 12.571-10.318 20.682v311.972c-.008 11.679 7.881 21.943 19.181 24.963 36.723 9.826 72.416 13.193 106.038 13.193 29.405 0 57.228-2.576 82.762-5.661 5.483-.662 9.391-5.645 8.729-11.127-.662-5.484-5.654-9.392-11.127-8.729-55.49 6.705-115.854 10.497-181.235-6.998-2.561-.685-4.349-2.999-4.347-5.635v-88.164c33.104 7.96 65.493 10.95 97.291 10.95 47.747 0 94.169-6.7 139.695-13.271 79.197-11.431 154.091-22.218 235.013-1.816v92.02c0 2.607-1.524 4.089-2.433 4.74-.741.532-2.742 1.676-5.307.805-.227-.077-.457-.146-.688-.206-61.988-16.178-120.349-13.544-188.908-4.61-5.477.713-9.338 5.731-8.624 11.208.713 5.477 5.734 9.348 11.208 8.624 66.127-8.616 122.223-11.223 180.971 4.051 7.769 2.502 16.335 1.16 22.998-3.614 6.853-4.911 10.783-12.563 10.783-20.997v-311.974c.006-11.714-7.924-21.983-19.278-24.972zm-470.414 20.573c1.077-.807 2.919-1.607 5.585-.824.082.023.165.047.248.069 78.521 20.832 153.81 10.075 226.622-.327 74.446-10.637 151.426-21.635 232.863-.151 2.576.678 4.374 2.989 4.373 5.626v88.212c-83.045-19.713-161.704-8.379-237.876 2.614-75.394 10.882-153.307 22.102-234.123 1.505v-92.048c0-1.873.841-3.577 2.308-4.676zm265.189 174.483c-3.699-1.538-7.96-.715-10.823 2.087l-16.687 16.316-20.066-11.92c-3.445-2.046-7.776-1.84-11.011.526l-17.315 12.664-1.158-9.683c-1.596-13.331 7.953-25.476 21.285-27.071l3.821-.456c5.484-.656 9.397-5.634 8.742-11.117-.988-8.265-3.228-14.721-6.305-20.547l13.722-1.642c2.634-.31 5.241.427 7.354 2.087 2.112 1.661 3.448 4.023 3.763 6.653l1.324 11.071c.657 5.485 5.652 9.392 11.116 8.742l3.825-.458c6.416-.762 12.783 1.031 17.917 5.068 5.135 4.037 8.385 9.796 9.152 16.216l1.159 9.684zm10.081 25.835c-6.434.834-12.849 1.707-19.245 2.601l7.601-7.432zm-51.979 7.284c-7.612 1.094-15.25 2.177-22.913 3.221l12.7-9.288zm-225.599.279v-90.548c33.106 7.961 65.489 10.95 97.292 10.95 31.983 0 63.375-3.012 94.302-6.973.302.684.667 1.346 1.126 1.959 4.663 6.229 7.673 10.772 9.537 15.714-20.479 5.929-34.294 26.022-31.681 47.867l3.19 26.66c.039.323.109.638.178.952-56.509 6.505-114.439 8.584-173.944-6.581zm309.122-11.249-3.109-25.986c-1.403-11.726-7.315-22.224-16.649-29.563-7.694-6.05-16.926-9.334-26.499-9.515l-.187-1.563c-.799-6.672-3.761-12.751-8.435-17.47 72.893-10.363 142.74-18.254 217.757.66v90.565c-56.101-13.317-110.2-12.476-162.878-7.128z"/><path d="m251.387 418.613h-.007c-5.522 0-9.996 4.478-9.996 10s4.48 10 10.003 10 10-4.478 10-10-4.478-10-10-10z"/></g></g></svg>