<svg id="Layer_1" enable-background="new 0 0 512.002 512.002" height="512" viewBox="0 0 512.002 512.002" width="512" xmlns="http://www.w3.org/2000/svg"><g><g clip-rule="evenodd" fill-rule="evenodd"><path d="m256.001 370.002c9.904 0 19.559-1.123 28.842-3.247 19.128-4.376 36.684-13.004 51.61-24.825 14.325-11.345 26.227-25.632 34.773-41.925 6.462-12.322 11.005-25.791 13.224-40.001l1.55-.002c16.5 0 30-13.5 30-30s-13.5-30-30-30h-260c-16.5 0-30 13.5-30 30s13.5 30 30 30.002l1.551-.002c2.219 14.213 6.762 27.682 13.224 40.003 8.546 16.293 20.448 30.58 34.773 41.925 14.926 11.821 32.482 20.449 51.61 24.825 9.284 2.125 18.939 3.247 28.843 3.247z" fill="#f5c6af"/><path d="m233.501 437.645-6.342-70.889c-19.128-4.376-36.684-13.004-51.61-24.825v18.077 63.244h-30.473c-11 0-18.808-9.064-20-20l-4.52-41.466c-27.709 31.681-44.555 73.074-44.555 118.213v22.003h360v-22.003c0-45.14-16.846-86.531-44.555-118.212l-4.519 41.465c-1.192 10.935-9 20-20 20h-30.473v-63.244-18.077c-14.926 11.821-32.482 20.449-51.61 24.825l-6.342 70.889c-.49 5.477-4.501 10-10 10h-25c-5.5-.001-9.511-4.522-10.001-10z" fill="#f5c6af"/><path d="m175.548 423.252v-63.244h-55.186l.194 1.779 4.52 41.466c1.192 10.935 9 20 20 20h30.472z" fill="#ffc144"/><path d="m120.362 360.008h55.186v-18.077c-14.325-11.345-26.227-25.632-34.773-41.925h-81.705c6.552 9.636 16.679 18.475 28.432 29.494l32.736 29.371z" fill="#60a4ff"/><path d="m59.071 300.006h81.705c-6.462-12.322-11.005-25.791-13.224-40.001h-1.551-72.638l-.107.414c-4.38 16.989-1.528 28.789 5.815 39.587z" fill="#ffc144"/><path d="m53.363 260.005h72.638c-16.5-.002-30-13.502-30-30.002s13.5-30 30-30h-57.169z" fill="#60a4ff"/><path d="m104.927 59.998h302.148l-2.577-9.998c-5.491-21.298-18.005-40-40-40h-108.497-108.497c-21.995 0-34.509 18.702-40 40z" fill="#60a4ff"/><path d="m407.075 59.998h-302.148l-10.313 40.001h117.439c3.03-2.515 6.726-4.582 11.041-6.079 0-10.769 14.691-19.5 32.813-19.5s32.812 8.731 32.812 19.5c4.315 1.498 8.012 3.565 11.042 6.079h117.627z" fill="#ffc144"/><path d="m288.719 93.92c0-10.769-14.69-19.5-32.812-19.5s-32.813 8.731-32.813 19.5 14.691 29.5 32.813 29.5 32.812-18.731 32.812-29.5z" fill="#ffc144"/><path d="m443.17 200.002h-57.169c16.5 0 30 13.5 30 30s-13.5 30-30 30.002h72.638z" fill="#60a4ff"/><path d="m458.639 260.005h-72.638l-1.55-.002c-2.219 14.213-6.762 27.682-13.224 40.003h81.705c7.342-10.798 10.195-22.598 5.815-39.588z" fill="#ffc144"/><path d="m452.931 300.006h-81.704c-8.546 16.293-20.448 30.58-34.773 41.925v18.077h55.186l.124-1.138 32.736-29.37c11.752-11.019 21.879-19.858 28.431-29.494z" fill="#60a4ff"/><path d="m391.64 360.008h-55.186v63.244h30.473c11 0 18.808-9.064 20-20l4.519-41.465z" fill="#ffc144"/><path d="m278.501 437.645 6.342-70.889c-9.284 2.124-18.939 3.247-28.842 3.247-9.904 0-19.559-1.123-28.842-3.247l6.342 70.889c.49 5.478 4.501 10 10 10h25c5.499-.001 9.51-4.523 10-10z" fill="#ffc144"/><path d="m223.094 93.92c-27.378 9.501-29.857 41.933 4.937 66.081h7.875v-44.365c-7.791-6.404-12.812-15.421-12.812-21.716z" fill="#ffcd69"/><path d="m288.719 93.92c0 6.296-5.02 15.312-12.812 21.717v44.365h7.875c34.794-24.149 32.316-56.581 4.937-66.082z" fill="#ffcd69"/><path d="m275.907 160.001v-44.365c-5.537 4.551-12.473 7.783-20 7.783-7.528 0-14.464-3.232-20.001-7.784v44.365h-7.875-148.886l-10.313 40.001h57.169 260 57.169l-10.313-40.001h-149.074-7.876z" fill="#ffc144"/><g fill="#60a4ff"><path d="m228.031 160.001c-29.31-20.342-32.17-46.562-15.978-60.002h-117.439l-15.469 60.002z"/><path d="m299.761 99.999c16.192 13.44 13.331 39.66-15.978 60.002h149.074l-15.469-60.002z"/></g></g><g><path d="m226.003 240.003c0-5.523-4.477-10-10-10h-.007c-5.523 0-9.997 4.477-9.997 10s4.481 10 10.004 10 10-4.477 10-10z"/><path d="m296.006 230.003h-.007c-5.523 0-9.997 4.477-9.997 10s4.481 10 10.004 10 10-4.477 10-10-4.477-10-10-10z"/><path d="m274.121 272.714c-4.84 4.84-11.275 7.505-18.12 7.505-6.844 0-13.279-2.666-18.12-7.505-3.905-3.905-10.237-3.905-14.142 0s-3.905 10.237 0 14.142c8.618 8.617 20.075 13.363 32.261 13.363 12.187 0 23.644-4.746 32.262-13.363 3.905-3.905 3.906-10.237 0-14.142-3.904-3.905-10.235-3.905-14.141 0z"/><path d="m431.339 336.794c1.629-1.527 3.227-3.012 4.788-4.463 22.286-20.716 41.533-38.607 32.303-74.409l-54.249-210.419c-7.783-30.189-25.892-47.503-49.683-47.503h-216.994c-23.792 0-41.9 17.314-49.684 47.503l-54.247 210.419c-9.23 35.801 10.016 53.692 32.301 74.408 1.561 1.451 3.159 2.937 4.789 4.464.053.05.107.099.161.148l27.121 24.332c-27.1 33.701-41.943 75.552-41.943 118.725v22.003c0 5.523 4.477 10 10 10h134.997c5.523 0 10-4.477 10-10s-4.477-10-10-10h-44.994v-22.003c0-5.523-4.477-10-10-10s-10 4.477-10 10v22.003h-60.004v-12.003c0-32.796 9.591-64.745 27.341-92.106l1.792 16.442c1.827 16.755 14.418 28.917 29.941 28.917h30.473c5.523 0 10-4.477 10-10v-62.41c10.161 5.949 21.008 10.581 32.276 13.799l5.717 63.894c.975 10.893 9.556 19.108 19.96 19.108h25c10.405 0 18.986-8.215 19.96-19.108l5.717-63.894c11.268-3.219 22.115-7.85 32.275-13.799v62.409c0 5.523 4.477 10 10 10h30.473c15.523 0 28.115-12.161 29.941-28.917l1.792-16.441c17.75 27.361 27.341 59.309 27.341 92.104v12.003h-60.002v-22.003c0-5.523-4.477-10-10-10s-10 4.477-10 10v22.003h-45c-5.523 0-10 4.477-10 10s4.477 10 10 10h135.003c5.523 0 10-4.477 10-10v-22.003c0-43.172-14.844-85.023-41.944-118.724l27.121-24.333c.054-.046.108-.096.161-.146zm-175.338 23.208c-58.558 0-109.531-43.654-118.569-101.542-.76-4.869-4.953-8.458-9.88-8.458h-1.55c-11.028 0-20-8.972-20-20s8.972-20 20-20h260c11.028 0 20 8.973 20 20s-8.972 20-20 20h-1.55c-4.927 0-9.12 3.589-9.88 8.458-9.039 57.888-60.013 101.542-118.571 101.542zm-191.271-69.996c-3.136-6.039-4.22-12.266-3.194-20.001h57.739c1.508 6.827 3.533 13.51 6.037 20.001zm11.851-80.004h14.801c-3.415 5.888-5.382 12.717-5.382 20 0 7.282 1.961 14.114 5.376 20.002h-25.108zm10.313-40.001h149.012c5.523 0 10-4.477 10-10v-27.953c3.19.874 6.532 1.371 10.001 1.371s6.811-.497 10-1.371v27.953c0 5.523 4.477 10 10 10h149.201l5.156 20.001h-44.264-260-44.263zm15.469-60.002h91.432c-.492 1.648-.875 3.347-1.138 5.092-1.766 11.737 1.892 23.82 10.254 34.91h-110.861zm10.313-40.001h117.891c-7.998 3.99-13.828 9.859-16.239 16.75-1.986.967-3.842 2.062-5.589 3.251h-101.22zm333.058 180.006h-25.109c3.415-5.888 5.376-12.719 5.376-20.002s-1.966-14.112-5.382-20h14.802zm-219.828-104.448c-9.791-8.949-14.765-18.89-13.471-27.489.545-3.622 2.247-6.804 4.943-9.406 2.143 3.968 5.033 7.886 8.527 11.399v25.496zm7.189-51.637c0-3.262 8.884-9.5 22.813-9.5 13.928 0 22.812 6.238 22.812 9.5 0 5.342-10.361 19.5-22.812 19.5-12.452 0-22.813-14.158-22.813-19.5zm61.34 14.742c2.692 2.598 4.393 5.774 4.94 9.388 1.304 8.598-3.671 18.551-13.468 27.507v-25.496c3.495-3.513 6.385-7.431 8.528-11.399zm24.715 6.39c-.263-1.732-.644-3.417-1.133-5.053h91.622l10.313 40.002h-111.049c8.372-11.104 12.027-23.204 10.247-34.949zm80.176-45.053 5.156 20.001h-101.407c-1.747-1.19-3.603-2.284-5.589-3.251-2.411-6.891-8.241-12.76-16.239-16.75zm-6.599 200.006h57.739c1.026 7.735-.058 13.962-3.194 20.001h-60.582c2.503-6.491 4.529-13.173 6.037-20.001zm-245.223-250.004h216.994c17.831 0 26.072 17.764 29.63 29.998h-276.254c3.559-12.234 11.799-29.998 29.63-29.998zm-58.013 297.682c-2.938-2.731-5.652-5.273-8.141-7.676h53.563c7.779 13.381 17.773 25.531 29.692 35.843.312.27.629.531.943.798v3.361h-40.213l-31.073-27.878c-1.623-1.522-3.215-3.002-4.771-4.448zm55.584 95.57c-6.081 0-9.477-5.746-10.059-11.083l-3.505-32.161h34.037v43.244zm123.465 23.502c-.039.439-.175.735-.274.89h-24.532c-.098-.155-.234-.451-.273-.891l-5.18-57.896c5.852.754 11.769 1.144 17.719 1.144 5.951 0 11.867-.39 17.72-1.144zm98.387-23.502h-20.473v-43.244h34.037l-3.505 32.161c-.582 5.337-3.978 11.083-10.059 11.083zm50.814-91.124-31.074 27.879h-40.213v-3.36c.314-.267.632-.528.944-.798 11.919-10.313 21.913-22.462 29.692-35.843h53.563c-2.489 2.404-5.203 4.945-8.142 7.677-1.557 1.445-3.148 2.925-4.77 4.445z"/><path d="m256.001 492.002h-.007c-5.523 0-9.996 4.477-9.996 10s4.48 10 10.003 10 10-4.477 10-10-4.477-10-10-10z"/></g></g></svg>